<svg version="1.2" xmlns="http://www.w3.org/2000/svg" viewBox="0 0 1000 290" width="1000" height="290">
	<title>Hollow Knight Silksong Logo Vector</title>
	<style>
		.s0 { fill: #000000 } 
	</style>
	<g id="watermark_1_">
		<g>
			<g id="watermark" style="opacity: .61">
				<g>
					<g>
						<g>
							<g>
							</g>
							<g>
							</g>
							<g>
							</g>
							<g>
							</g>
						</g>
						<g>
						</g>
						<g>
						</g>
						<g>
						</g>
						<g>
						</g>
						<g>
						</g>
						<g>
						</g>
						<g>
						</g>
						<g>
						</g>
						<g>
						</g>
						<g>
							<g>
								<g>
								</g>
								<g>
								</g>
								<g>
								</g>
							</g>
							<g>
							</g>
							<g>
							</g>
							<g>
							</g>
							<g>
							</g>
						</g>
					</g>
					<g>
					</g>
					<g>
						<g>
							<g>
							</g>
							<g>
							</g>
							<g>
							</g>
						</g>
						<g>
						</g>
						<g>
						</g>
						<g>
						</g>
						<g>
						</g>
					</g>
				</g>
			</g>
			<g style="opacity: .61">
				<g>
					<g>
					</g>
					<g>
						<g>
						</g>
						<g>
						</g>
						<g>
						</g>
						<g>
						</g>
						<g>
						</g>
						<g>
						</g>
						<g>
						</g>
						<g>
						</g>
						<g>
						</g>
						<g>
						</g>
						<g>
						</g>
						<g>
						</g>
					</g>
				</g>
				<g>
				</g>
				<g>
				</g>
				<g>
				</g>
				<g>
				</g>
				<g>
				</g>
				<g>
				</g>
				<g>
				</g>
				<g>
				</g>
				<g>
				</g>
			</g>
			<g style="opacity: .61">
			</g>
		</g>
		<g style="opacity: .61">
		</g>
	</g>
	<g>
	</g>
	<g>
		<path class="s0" d="m99 239.4c1.3-8 2-16.1 4.5-23.8 0.7-2 0.6-5.4 3.4-5.1 3.2 0.3 1.6 3.6 1.7 5.5 0.6 9.9 1.7 19.6 5.9 28.7 4.6 10 11.2 18.2 22.1 21.6 18 5.6 34.2-6.2 36.4-25.8 1.4-13.2-2.5-24.3-11.8-33.6-12.4-12.4-24.5-25.2-37.3-37.3-27.9-26.4-25.8-66.5-13.2-90.4 8.2-15.6 21.4-22.9 39.4-21.8 11.3 0.7 22.3 3.6 33.7 2.9 2.7-0.2 3.7 1.3 3.5 3.9-0.8 13.3-1.6 26.7-2.4 40-0.1 1.3-0.3 2.8-2.1 2.8-2.1 0-1.9-1.7-2-3.1-0.3-5.4-1.3-10.7-3.4-15.7-4.7-11.2-14.5-17-27.1-16.1-10 0.7-18.2 8.2-21.4 19.2-4 14 0.5 25.5 10.5 35.3 13.2 13 26.3 25.9 39.6 38.8 13.2 12.7 19.4 28.2 19.5 46.5 0.2 13.9-1.1 27.4-7.1 40.2-8.9 19.1-23.9 29.3-45.1 30-12.5 0.4-24.3-1.9-35-8.6-6.3-4-11.6-8.7-12.3-16.8q0-8.6 0-17.3z"/>
		<path class="s0" d="m901 178.1c-6.9 0.4-8.4 1.6-9.5 8.4-0.4 2-0.5 4.2-0.5 6.2 0 15.2 0 30.4 0 45.6 0 1.7 0.2 3.5-0.6 5.1-8.7 18.9-22 33-43 37.7-18.6 4.2-33.8-2.6-45.6-17.1-11.2-13.6-17-29.8-20.3-46.8-6.8-35.7-6.7-71.3 2.8-106.6 3.8-14.2 10-27.3 20.2-38.2 12.3-12.9 27.2-17.1 44.5-14.3 11.7 2 22.4 6.3 31.6 14 1.8 1.5 2.5 3.1 2.5 5.4 0.2 15 0.4 29.9 0.6 44.8 0 0.8 0 1.6-0.1 2.4-0.1 1.2 0.1 2.9-1.7 3-1.5 0-1.5-1.6-1.7-2.7-1.7-9.3-3.5-18.6-7.1-27.4-2.7-6.8-6.2-13.2-11.7-18.4-10.9-10.4-27.2-9.6-37 1.8-6.6 7.7-10.2 16.8-12.9 26.3-4 14.3-5.6 29-6.5 43.8-1.2 19.7-0.7 39.3 1.7 58.8 1.7 14.5 4.5 28.7 11.5 41.8 2.5 4.7 5.4 9 9.9 12 7.8 5.4 16.7 5.4 24.1-0.6 8.4-6.9 13-16.1 13.3-27 0.3-15.1 0.1-30.1 0.1-45.2 0-2.6 0-5.2-1-7.7-1.1-2.8-2.8-4.8-6-4.9-1.8-0.1-3.6-0.4-3.3-2.8 0.3-2.5 2.3-2.2 4-2.2q20.8 0 41.7 0.1 0 2.3 0 4.7z"/>
		<path class="s0" d="m734 211.3c0-33.8 0-66.9 0-100.1 0-4.1-0.2-8.1-1.9-11.9-1.2-2.7-3-4.6-6.1-5-1.3-0.1-2.7-0.2-2.7-2.1 0.1-1.7 1.4-2.1 2.7-2.1q18.8-0.1 37.5 0c1.3 0 2.7 0.3 2.8 2 0 1.5-1 2-2.3 2.2-3.8 0.4-5.7 3-6.9 6.2-1.2 3-1.7 6.3-1.7 9.6 0.1 48.6 0 97.2 0.1 145.8 0 7.1 0.9 14.1 1.2 21.2 0.1 1.4 1.1 3.5-1 4-1.8 0.5-2.2-1.5-2.9-2.7q-16.4-30.2-32.8-60.5-16.1-29.5-32.1-59.1c-0.3-0.5-0.7-1-1.1-1.7-1 1.2-0.6 2.4-0.6 3.5q0 47.4 0 94.8c0 4.4 0.3 8.9 2.2 13 1.2 2.8 2.9 5 6.2 5.4 1.5 0.1 2.7 0.6 2.4 2.4-0.2 1.7-1.7 1.8-3 1.8-3 0.1-6 0-9 0q-12.6 0.1-25.2 0c-1.2 0-2.4 0-3.6-0.1-1.2-0.2-1.9-0.9-1.8-2.1 0-1.1 0.6-1.8 1.6-1.9 5.8-0.6 7.2-5 8.4-9.6 0.7-2.5 0.8-5.1 0.8-7.7 0-46.9 0.1-93.9 0-140.8-0.1-7.9-0.9-15.9-1.3-23.9 0-1.8-1.3-4.5 1-5.2 2.1-0.6 2.7 2.2 3.5 3.7q32.2 59.4 64.4 118.9c0.3 0.4 0.6 0.9 1.2 2z"/>
		<path class="s0" d="m647.6 180.6c-0.1 24.9-2.3 45.6-10.4 65.4-4.9 12.1-11.9 22.8-23.4 29.8-18.1 11-40.8 6.4-54.6-10.9-10.1-12.6-15.2-27.4-18-43.1-5.5-31.1-5-62 4.3-92.5 2.9-9.4 7.3-18.2 13.6-25.9 18.5-22.9 49.6-22.7 67.7 0.6 10.8 13.7 15.5 29.9 18.3 46.7 1.8 11.1 2.8 22.4 2.5 29.9zm-24 4.2c-0.3-17.2-1.1-33.8-4.9-50.1-2.3-10.4-5.2-20.6-12.6-28.8-8.5-9.2-19.9-8.7-27.8 1.1-4 5.1-6.7 11-8.6 17.1-8.4 26.5-8.1 53.7-6.9 81 0.5 12.3 2.4 24.4 6 36.3 2.4 7.9 5.4 15.6 11.4 21.7 7.5 7.6 17.2 7.7 24.7 0.2 6.7-6.6 9.8-15.1 12.3-23.8 5.1-18.1 5.9-36.6 6.4-54.7z"/>
		<path class="s0" d="m457.4 251.5c0.3-9.4 1.2-18.8 3.2-28q0.1-0.6 0.3-1.1c0.5-1.3 0.5-3.4 2.4-3.1 1.7 0.3 1.2 2.1 1.3 3.3 0.1 1.9 0 3.7 0.1 5.5 0.1 8.2 1.8 16.1 4.8 23.8 1.4 3.5 3.3 6.8 5.7 9.8 8.8 10.7 23.3 9.2 28.8-3.4 5.8-13.2 5.9-26.6-2.4-39-8-12-17.2-23.2-26.3-34.4-13.4-16.5-17.1-35.5-15.2-56 0.7-7.8 2-15.3 5-22.6 0.8-1.8 1.6-3.6 2.6-5.3 6.5-11.6 15.1-15.9 28.4-14.1 6.1 0.8 12.1 2.7 18.3 2.3 2.4-0.2 3.2 1.2 3.1 3.4-0.5 11.5-1.1 23.1-1.6 34.6-0.1 1-0.1 2.3-1.6 2.2-1.2 0-1.2-1.2-1.3-2-0.5-3.5-0.8-7.1-1.5-10.5-0.6-3.7-2.1-7.1-4.1-10.1-7-10.4-20.1-10.1-26 0.9-5.4 9.8-5.8 20.2-1.3 30.6 2.3 5.1 5.9 9.3 9.3 13.6q11.3 14.4 22.8 28.6c7.9 9.9 11.9 21.2 12.8 33.6 1.2 17.1-0.1 33.9-8.2 49.4-10.1 19.3-33.3 24-50.7 10.8-7.8-6-8.9-14-8.7-22.8z"/>
		<path class="s0" d="m302.8 278q-15.4 0.1-30.7 0c-1.2 0-2.4 0-3.5-0.1-1-0.2-1.7-0.8-1.8-1.8-0.1-1 0.3-1.9 1.3-2.2 7.4-1.7 8-7.8 8.8-13.7 0.2-1.5 0.1-3.1 0.1-4.7q0-71.5 0-143c0-4.1-0.1-8.1-1.7-12-1.1-2.7-2.7-5.1-5.7-6-1.4-0.4-3.1-0.5-2.8-2.6 0.4-2.1 2.3-1.8 3.8-1.9 10.1 0 20.2 0 30.3 0 2 0 3.9 0 5.9 0.1 1.3 0 2.8 0.1 3 1.9 0.2 1.7-0.9 2.2-2.4 2.4-3 0.5-4.7 2.6-5.9 5.3-1.5 3.6-2.2 7.5-2.2 11.4 0 49.8 0 99.6-0.1 149.3 0 3.6 1 5.1 4.7 4.8 3.6-0.3 7.3-0.1 11-0.1 6.5 0 11.6-2.5 15.6-7.7 6.2-8.2 8.7-17.8 10.9-27.6 0.4-1.7 0.6-3.6 1-5.4 0.3-1 0.6-2.2 2-1.9 1.3 0.3 1.2 1.5 1.1 2.6-0.8 6.2-1.5 12.5-2.2 18.7-1.2 10.1-2.6 20.3-3.6 30.4-0.3 3.1-1.8 3.9-4.6 3.9-10.8-0.1-21.5-0.1-32.3-0.1z"/>
		<path class="s0" d="m234.5 90c5.9 0 11.8 0 17.7 0 1.4 0 3.1-0.1 3.5 1.8 0.4 2-1.2 2.2-2.6 2.7-3.4 0.9-5 3.6-6.2 6.6-1.2 3.3-1.4 6.7-1.4 10.1q0.1 72.9 0 145.8c0 3.8 0.3 7.6 1.9 11.1 1.2 2.6 2.8 4.9 5.8 5.5 1.3 0.3 2.7 0.6 2.5 2.4-0.1 2-1.7 2-3.2 2-5.5 0.1-11 0-16.5 0-6.6 0-13.1 0.1-19.7 0-1.5 0-3.4 0.1-3.6-2.1-0.2-2.1 1.6-2 3-2.4 2.7-0.6 4.2-2.6 5.2-4.9 1.7-3.8 2.3-7.8 2.3-11.9q0.1-72.7 0-145.4 0-5.8-2-11.2c-1.1-2.7-2.7-5.1-6-5.7-1.3-0.2-2.7-0.5-2.5-2.3 0.2-2 1.8-2 3.3-2.1 6.2 0 12.3 0 18.5 0q0 0 0 0z"/>
		<path class="s0" d="m373.4 90c5.9 0 11.8 0 17.7 0 1.5 0.1 3.4-0.2 3.7 2 0.2 2.1-1.5 2.2-2.9 2.5-2.7 0.7-4.2 2.6-5.2 5-1.6 3.5-2.3 7.2-2.3 11q0 73.5 0 147.1c0 3.9 0.7 7.8 2.5 11.4 1.1 2.3 2.7 4.2 5.4 4.7 1.4 0.2 2.7 0.6 2.5 2.3-0.2 2.1-1.9 2-3.3 2q-13.4 0-26.8 0c-3.3 0-6.6 0.1-9.8 0-1.3 0-2.8-0.1-3-1.9-0.3-1.7 0.9-2 2.3-2.4 5.7-1.7 6.6-6.7 7.5-11.5 0.4-2 0.3-4.2 0.3-6.3q0-71.9 0-143.8c0-3.7-0.1-7.4-1.4-10.9-1.2-3.2-2.8-6-6.4-6.8-1.4-0.4-2.6-0.8-2.3-2.5 0.2-1.8 1.7-1.8 3-1.8 6.2-0.1 12.3-0.1 18.5-0.1q0 0 0 0z"/>
		<path class="s0" d="m431.9 90c4.2 0 8.4 0 12.6 0 1.4 0.1 3.1-0.2 3.5 1.8 0.4 2-1.3 2.2-2.7 2.5-6.7 1.7-10.1 6.8-12.7 12.5-6.7 15.1-13.2 30.3-19.8 45.4-0.1 0.2-0.2 0.5-0.3 0.7-6.5 9.7-5.5 19.1-1 29.8 10 24 18.6 48.7 27.9 73 1.3 3.4 2.9 6.8 4.5 10 1.8 3.5 4.1 6.4 8.1 7.7 1.3 0.4 2.4 1.1 2.1 2.8-0.3 1.4-1.5 1.6-2.7 1.8-19 2.7-32.5-4.8-39.4-22.6-8.2-21-15.9-42.2-23.9-63.2-0.9-2.5-0.3-4.6 0.6-6.8q15.2-38.8 30.3-77.6c0.8-2 1.5-4.2 1.8-6.4 0.2-2.9 0-5.9-3.4-7.2-1.2-0.4-2.2-0.9-2-2.4 0.3-1.5 1.5-1.7 2.7-1.7 4.6-0.1 9.2 0 13.8 0q0-0.1 0-0.1z"/>
		<path class="s0" d="m530.2 31.3q3.8-6.2 7.5-12.4c0.2-0.4 0.3-0.8 0.5-1.1 0.8-1.5-1.2-3.9 0.9-4.6 2.8-1 6-0.5 8.9-0.2 1.3 0.1 2.2 1.3 0.7 2-5.8 2.7-7.5 8.6-10.5 13.4-6.4 9.8-6.2 6.2-0.1 16.7 2.9 4.8 6 9.5 9 14.3 0.7 1 1.4 1.9 2.2 2.8 1 1 2.2 2.2 3.7 1.8 1.9-0.5 1.3-2.4 1.3-3.7 0.1-14.1 0-28.3 0.1-42.4 0-2.2-0.9-5.2 2.2-6 2.8-0.8 3.5 2.2 4.5 4 5.6 9.5 11.1 19 16.6 28.5 0.9 1.5 1.7 2.9 2.9 4.1 0.3-10.1 0.5-20.1-0.3-30.2-0.1-1.1-0.4-2-1.5-2.6-0.9-0.4-2.3-0.5-1.7-2 0.5-1.2 1.8-0.9 2.8-0.9 1.5-0.1 2.9 0 4.4 0 4.8 0 4.7 0 2.9 4-0.5 1.1-0.3 2.6-0.3 3.9-0.1 14-0.1 28-0.1 42 0 1.8 0.6 4-1.7 4.8-2.6 0.8-3.5-1.4-4.5-3-6.6-11-13.2-21.9-19.7-32.7 0 9.3 0 18.8 0 28.2 0 2 0.5 3.7 2.4 4.6 0.6 0.3 1.2 0.7 1 1.5-0.2 0.9-1 1.2-1.8 1.2-5.6-0.1-11.2 0.5-16.9-0.2-2.5-0.4-4.1-2.1-5.6-4.1-3.8-5.1-6.6-10.9-10.4-17-0.3 5.5-0.4 10.2 0.1 15 0.1 1.3 0.5 2.5 1.7 3.3 0.7 0.5 1.8 0.9 1.3 2.1-0.5 1-1.5 0.9-2.4 0.9q-2.8 0.1-5.5 0c-1.6 0-3.4 0.6-4.6-0.5-2.2-2 1.4-2.1 1.4-3.5 0-1.1 0.3-2.1 0.3-3.2q0.1-20 0.1-40c0-2-0.1-3.8-2.4-5-1.7-0.8-0.7-2.1 0.8-2.2 3.4-0.1 6.8-0.1 10.2 0 1 0.1 2.1 1 1.1 1.8-3.6 2.9-2 6.8-2.3 10.3-0.2 2 0 4.1 0 6.2q0.4 0 0.8 0.1z"/>
		<path class="s0" d="m475.4 34c-2.2 9.3-4.3 18.5-6.6 27.7-0.6 2.4-0.3 6.2-3.6 6.2-3.7 0.1-2.8-3.8-3.3-6.1-2.7-13.6-5.2-27.3-7.8-40.9-0.4-2.2-0.7-4.5-3.2-5.5-0.6-0.2-1.1-0.8-0.9-1.5 0.1-0.7 0.8-1 1.5-1 3.4-0.1 6.8-0.2 10.2 0 1.7 0.1 2.6 1 1 2.5-1.4 1.2-1.2 2.6-1 4 1.5 9.1 3.1 18.3 5.2 27.5q3.4-14.3 6.8-28.5c0.1-0.7 0.2-1.3 0.4-1.9 0.5-1.4 0.4-3.5 2.5-3.5 2.3-0.1 2.6 1.9 3 3.5 2.2 10 4.4 19.9 7.3 30 0.5-2.4 1-4.8 1.5-7.3 1.1-6 2.3-12 3.3-18.1 0.4-2 0.9-4.1-1-5.9-1.7-1.6-0.2-2.2 1.2-2.3 1.6-0.2 3.2-0.2 4.8-0.1 1.6 0.1 3.8-0.8 4.7 0.9 1 1.8-1.9 1.6-2.3 3-0.7 2.4-1.5 4.7-2 7.2-2.7 12.6-5.3 25.3-7.9 38q-0.4 1.7-0.8 3.4c-0.4 1.5-1.1 2.8-2.9 2.7-1.6 0-2.1-1.4-2.4-2.7q-2.3-9.9-4.5-19.9-1.3-5.7-2.6-11.3-0.3 0-0.6-0.1z"/>
		<path class="s0" d="m292.2 51.7q0 4.3 0 8.7c0 1.6 0.3 3.1 2 4 0.7 0.4 1.8 0.7 1.4 1.9-0.3 0.8-1.2 1-2 1-3.2 0-6.3 0.1-9.5 0-1.7-0.1-2.9-0.8-1.1-2.7 1.8-2 1.6-4.7 1.6-7.1 0.1-12.3 0.1-24.6 0.1-36.9 0-2.1 0-4.3-2.5-5.3-0.6-0.3-1-0.8-0.7-1.6 0.3-0.7 1-0.8 1.7-0.9q3.5 0 7 0c4.3 0 4.1-0.1 2.5 3.8-1.3 2.9-0.5 6.2-0.5 9.3 0 10.3-1.4 8.9 9 9 6.3 0 6.3 0 6.3-6.4 0-2.9 0-5.8 0-8.7-0.1-1.7-0.2-3.4-2.1-4.3-0.7-0.4-1.4-0.8-1-1.8 0.4-0.8 1.2-0.9 2-0.9 3 0 6-0.1 9.1 0 1.8 0.1 2.9 1 1 2.6-1.5 1.2-1.5 2.7-1.5 4.2q0 20.1 0 40.1c0 2.1 0.3 4 2.5 4.9 0.6 0.3 1.1 0.7 1 1.5-0.1 0.7-0.8 1.1-1.4 1.1-3.6 0.1-7.1 0.1-10.6 0-1.2 0-2.3-1-1.1-2.1 2.3-2.2 2-5 2.1-7.7 0.1-4.7 0-9.4 0.1-14.1 0-2.6-1-3.6-3.5-3.5-3 0.1-6 0-9.1 0-1.9 0-2.9 0.9-2.8 2.9 0 3 0 6 0 9q0 0 0 0z"/>
		<path class="s0" d="m660.1 51.5c0 2.5 0 5 0.1 7.4 0 2.3 0.2 4.4 2.5 5.8 2 1.2 1 2.4-0.6 2.5-3.4 0.2-6.9 0.2-10.3 0-1.6-0.1-2.5-1-0.9-2.5 1.9-1.6 1.7-3.7 1.7-5.8 0.1-12.8 0-25.6 0-38.5 0-2.1 0-4-2.4-5.2-1.7-0.9-0.8-2.2 0.7-2.3 3.3-0.2 6.8-0.1 10.2 0 1.4 0.1 2.4 1.2 0.9 2.3-2 1.4-1.9 3.2-1.9 5.2 0 3.8 0.1 7.6 0 11.4 0 2.1 0.9 3.2 3 3.1q0.4 0 0.8 0c11.6 0.4 11.7 0.4 11.5-11.1 0-3.1 1.4-6.9-2.8-9-1-0.5-0.1-1.8 0.9-1.8 3.5-0.2 7.1-0.3 10.6 0 1.6 0 2.1 1.3 0.6 2.3-1.9 1.3-1.7 3.1-1.7 4.9q-0.1 19 0 38.1c0 2.5 0 4.9 2.6 6.5 2 1.2 0.7 2.3-0.8 2.4-3.4 0.2-6.8 0.2-10.2 0-1.8-0.1-2.4-1.2-0.8-2.6 1.4-1.1 1.6-2.6 1.6-4.2 0.1-5.8 0-11.5 0.1-17.3 0.1-2.3-0.9-3.2-3.2-3.3-12.2-0.9-12.2-0.9-12.2 11.7z"/>
		<path class="s0" d="m359.2 38c0.1 8.1-1.1 15-5 21.2-3.6 5.8-8.7 9.4-15.9 8.9-6.8-0.4-10.9-4.7-13.5-10.5-5.2-11.8-5.1-23.7 0.5-35.3 3.2-6.6 8.4-10.9 16.1-10.6 7.8 0.3 12.4 5.1 15.2 11.8 2.1 4.9 2.9 10 2.6 14.5zm-8.1 3.2c0.2-7.2-0.4-14.2-4.4-20.4-4.2-6.4-11.2-6.4-14.1 0.6-5.4 12.4-4.8 24.9 1.5 37 1.5 3 4.1 5.2 7.9 4.9 3.9-0.4 5.4-3.3 6.8-6.4 2.2-5 2.4-10.4 2.3-15.7z"/>
		<path class="s0" d="m450.6 38.2c0 7.8-1.4 14.6-5.1 20.9-3.4 5.8-8.4 9.3-15.4 9-6.7-0.2-10.9-4.2-13.6-9.9-5.5-12-5.5-24.1 0.3-36 3.1-6.5 8.2-10.8 15.7-10.5 7.4 0.2 12.1 4.5 15 11 2.3 5.1 3.2 10.5 3.1 15.5zm-8.1 2.9c0.2-7-0.4-13.9-4.2-20-4.3-6.8-11.6-6.8-14.6 0.5-5.2 12.5-4.6 25 1.8 37.1 1.5 2.9 4.2 4.9 8 4.5 3.5-0.3 5.1-2.9 6.4-5.6 2.4-5.3 2.8-10.9 2.6-16.5z"/>
		<path class="s0" d="m635.3 52.6q0-3.5 0-7.1c0-1.3-0.2-2.6-1.7-3.2-0.8-0.4-1.9-0.8-1.3-2 0.4-1 1.5-0.8 2.4-0.8q4.1-0.1 8.3 0c0.9 0 1.9-0.1 2.3 1 0.4 1-0.5 1.4-1.1 1.8-1.6 1.1-1.4 2.7-1.4 4.3 0 4.6-0.1 9.1 0 13.7 0.1 2.9-1 4.6-3.6 5.9-9 4.6-20.5 1.4-25.1-7.6-6.2-12.1-6.2-24.6-0.3-36.7 5.7-11.8 17.5-11.8 27.5-8.1 1.2 0.4 1.5 1.4 1.5 2.5q0 4-0.1 7.9c0 1.3-0.2 2.7-1.9 2.9-1.7 0.1-2.1-1.1-2.4-2.5-0.5-3.5-1.9-6.2-5.4-7.6-5.2-2.1-10.3-0.7-12.5 4.7-5 12.2-4.4 24.3 2.3 35.8 1.7 3 4.5 5.2 8.1 5.6 2.9 0.3 4.6-0.6 4.5-3.8-0.1-2.2-0.1-4.5-0.1-6.7q0 0 0 0z"/>
		<path class="s0" d="m708.1 41.1q0 9.4 0 18.8c0 1.9 0.2 3.7 2.3 4.6 0.7 0.3 1.5 0.8 1.1 1.7-0.2 0.5-1 1-1.6 1q-5.1 0.2-10.2 0c-1 0-2.5-0.7-1.4-1.9 2.8-2.8 2.1-6.4 2.2-9.6 0.3-11.4 0.1-22.8 0.1-34.2 0-1.5 0.3-3.4-2-3.6-2-0.1-4.3-0.7-5.6 1.7-0.3 0.7-0.5 1.5-0.9 2.2-0.5 1-1.3 1.6-2.5 1.3-1.1-0.3-1.4-1.2-1.3-2.2 0.3-2.4 0.5-4.9 1-7.4 0.3-1.9 1.6-2.1 3.2-1.7 7.8 1.9 15.7 1.1 23.5 0.6 2.6-0.1 3.7 0.5 3.8 3 0 1.9 0 3.7-0.2 5.5-0.1 1.4-0.3 2.7-2.1 2.8-1.5 0.1-1.9-1.1-2.2-2.3-0.3-1-0.4-2.1-1.4-2.7-1.4-1-3-1.1-4.5-0.6-1.6 0.5-1.3 2.1-1.3 3.3-0.1 6.6 0 13.1 0 19.7q0 0 0 0z"/>
		<path class="s0" d="m400.3 67.3c-2.9 0-5.8 0.1-8.7-0.1-1.8-0.1-3.5-0.7-1.1-2.7 1.2-1.1 1.3-2.5 1.4-3.9q0-20.6 0-41.2c0-1.6-0.1-3.2-1.9-3.9-0.7-0.3-1.5-0.8-1.1-1.8 0.3-0.9 1.2-0.9 1.9-0.9q4.8 0 9.5 0c0.7 0 1.6 0.1 1.9 1 0.4 1-0.5 1.4-1.2 1.7-1.7 0.7-1.6 2.2-1.6 3.6 0 12.7-0.1 25.4 0 38.1 0 2.5 0.4 5 3.8 5.3 3 0.3 5.2-0.4 5.8-3.7 0.2-1.3 0.6-2.8 2.3-2.6 2.1 0.3 1.7 2 1.7 3.4-0.4 7.4-0.9 7.9-8.4 7.8q-2.2 0-4.3 0 0 0 0-0.1z"/>
		<path class="s0" d="m365.2 39.7c0-6.4 0-12.8-0.1-19.2 0-2 0.3-4.1-2.2-5.3-1.7-0.8-1-2.2 0.6-2.3 3.5-0.2 7 0 10.6 0 0.6 0 1.3 0.3 1.4 1 0.2 0.8-0.3 1.3-1 1.5-1.9 0.7-1.9 2.3-1.9 3.9 0 12.5-0.1 25.1 0.1 37.6 0 4.8 1.6 6.1 5.9 5.7 2.5-0.3 3.2-2 3.7-3.9 0.3-1.4 0.6-2.8 2.4-2.5 2 0.3 1.7 1.9 1.6 3.4-0.5 7.4-1 7.9-8.4 7.8q-6.1 0-12.2-0.1c-1.1 0-2.3 0.2-2.8-0.9-0.6-1.2 0.6-1.6 1.2-2.2 1.2-1.3 1-2.9 1-4.5 0-6.6 0-13.3 0-20q0 0 0.1 0z"/>
		<path class="s0" d="m596 39.8c0-6.1 0-12.3-0.1-18.4 0-2.3 0.5-4.7-2-6.3-1.3-0.9-0.4-2.1 0.8-2.1 3.2-0.2 6.5-0.2 9.8-0.1 1.5 0.1 2.3 1.3 0.7 2.3-1.9 1.3-1.8 3-1.8 4.9 0 12.5 0 25.1 0.1 37.6 0 2.7-0.3 5.5 2.9 7.2 1.7 0.8 0.8 2.2-0.6 2.2q-5.5 0.4-11 0.1c-1.5-0.1-2.2-1.3-0.7-2.4 1.8-1.4 1.8-3.4 1.8-5.4 0-6.5 0-13 0-19.6q0 0 0.1 0z"/>
	</g>
</svg>